<svg width="68" height="24" viewBox="0 0 68 24" fill="none" xmlns="http://www.w3.org/2000/svg">
<path d="M19.2812 4.85986H29.3506V7.74125H22.6142V11.888H28.6942V14.5492H22.6142V20.3028H19.2812V4.85986ZM31.4841 20.3028H34.7564V9.07527H31.4841V20.3028ZM31.4538 7.71877H34.7867V4.87673H31.4538V7.71877ZM46.0352 9.45186C45.4527 9.10712 44.7676 8.93467 43.9799 8.93467C43.0035 8.93467 42.2175 9.19924 41.6216 9.72807C41.1267 10.1673 40.7391 10.7426 40.4556 11.4497L40.4046 9.07527H37.3242V20.3028H40.5965V13.8454C40.5965 13.3769 40.6839 12.9785 40.8591 12.6504C41.0341 12.3225 41.2765 12.0714 41.5862 11.8972C41.8959 11.7232 42.2529 11.6361 42.6568 11.6361C43.2628 11.6361 43.7375 11.8236 44.0809 12.1985C44.4243 12.5735 44.596 13.0957 44.596 13.7651V20.3028H47.8683V13.1626C47.8683 12.2989 47.7082 11.5508 47.3885 10.918C47.0687 10.2854 46.6175 9.79677 46.0352 9.45186ZM55.6728 17.8575C55.4607 17.8875 55.294 17.9026 55.1728 17.9026C54.8295 17.9026 54.582 17.824 54.4305 17.6666C54.279 17.5094 54.2033 17.2666 54.2033 16.9385V11.5256H56.2838V9.07527H54.2033V6.40396H50.9309V9.07527H49.4059V11.5256H50.9309V17.2298C50.9309 18.2809 51.2355 19.0826 51.845 19.635C52.4543 20.1873 53.3414 20.4634 54.5062 20.4634C54.8226 20.4634 55.1559 20.4434 55.5061 20.4032C55.8562 20.363 56.2164 20.2894 56.5868 20.1822L56.1424 17.7721C56.0414 17.7989 55.8848 17.8273 55.6728 17.8575ZM68.0019 12.7106V20.3028H64.9114V18.7361H64.8104C64.6219 19.1044 64.3744 19.4208 64.0681 19.6852C63.7616 19.9497 63.398 20.1539 62.9773 20.2978C62.5564 20.4416 62.0734 20.5136 61.528 20.5136C60.8075 20.5136 60.1646 20.3897 59.5989 20.1421C59.0333 19.8945 58.5905 19.5229 58.2708 19.0274C57.951 18.532 57.7911 17.9161 57.7911 17.1795C57.7911 16.5503 57.9038 16.0247 58.1294 15.6029C58.355 15.1811 58.6647 14.8381 59.0586 14.5736C59.4525 14.3091 59.9035 14.1083 60.412 13.971C60.9203 13.8339 61.4573 13.7417 62.0229 13.6948C62.6693 13.6346 63.1894 13.5743 63.5833 13.514C63.9772 13.4538 64.2666 13.3619 64.4519 13.2379C64.637 13.1141 64.7297 12.9351 64.7297 12.7006V12.6504C64.7297 12.3626 64.6655 12.1182 64.5377 11.9173C64.4097 11.7164 64.2229 11.5625 63.9772 11.4553C63.7313 11.3484 63.43 11.2946 63.0733 11.2946C62.7163 11.2946 62.4032 11.3484 62.134 11.4553C61.8646 11.5625 61.6441 11.7064 61.4725 11.8872C61.3008 12.0679 61.1778 12.2788 61.1038 12.5198L58.1143 12.088C58.2825 11.4387 58.589 10.8796 59.0333 10.4109C59.4778 9.94236 60.0433 9.57911 60.7302 9.32134C61.4169 9.06364 62.2047 8.93467 63.0935 8.93467C63.7464 8.93467 64.3694 9.01172 64.9619 9.16567C65.5544 9.31977 66.078 9.55226 66.5325 9.86359C66.9869 10.1749 67.3455 10.5666 67.6081 11.0386C67.8706 11.5106 68.0019 12.0679 68.0019 12.7106ZM64.7498 15.1509C64.6555 15.2112 64.5259 15.2665 64.361 15.3167C64.1959 15.3669 64.0125 15.4121 63.8105 15.4523C63.6086 15.4924 63.4081 15.5275 63.2096 15.5577C63.0109 15.5878 62.8274 15.6164 62.6592 15.6431C62.3022 15.69 61.9926 15.772 61.73 15.8891C61.4674 16.0063 61.2655 16.1603 61.1241 16.3511C60.9827 16.5419 60.9119 16.7746 60.9119 17.049C60.9119 17.3168 60.9809 17.5446 61.1189 17.7319C61.2569 17.9194 61.4438 18.06 61.6795 18.1536C61.9151 18.2475 62.1845 18.2942 62.4875 18.2942C62.925 18.2942 63.3139 18.2074 63.654 18.0332C63.9939 17.8592 64.2616 17.6215 64.4569 17.3201C64.6522 17.0189 64.7498 16.6774 64.7498 16.2958V15.1509Z" fill="#202E47"/>
<path d="M0 14.4L8.36126 9.60002L12.2203 11.8154L3.85904 16.6154V24L0 21.7846V14.4ZM0 9.23078L3.85904 11.4462V7.0154L12.2203 2.21539L8.36126 0L0 4.80001V9.23078Z" fill="#2870E9"/>
</svg>
